<svg id="visual" viewBox="0 0 900 600" width="900" height="600" xmlns="http://www.w3.org/2000/svg" xmlns:xlink="http://www.w3.org/1999/xlink" version="1.1"><path d="M366 0L389.3 20C412.7 40 459.3 80 458.7 120C458 160 410 200 414.5 240C419 280 476 320 499.8 360C523.7 400 514.3 440 488.2 480C462 520 419 560 397.5 580L376 600L0 600L0 580C0 560 0 520 0 480C0 440 0 400 0 360C0 320 0 280 0 240C0 200 0 160 0 120C0 80 0 40 0 20L0 0Z" fill="#0066FF" stroke-linecap="round" stroke-linejoin="miter"></path></svg>